<?xml version="1.0" encoding="UTF-8" standalone="no"?>
<!-- Created with Inkscape (http://www.inkscape.org/) -->

<svg
   width="83.753799mm"
   height="84.394646mm"
   viewBox="0 0 83.753799 84.394646"
   version="1.1"
   id="svg5"
   inkscape:version="1.1 (1:1.1+202105261517+ce6663b3b7)"
   sodipodi:docname="papaly.svg"
   xmlns:inkscape="http://www.inkscape.org/namespaces/inkscape"
   xmlns:sodipodi="http://sodipodi.sourceforge.net/DTD/sodipodi-0.dtd"
   xmlns="http://www.w3.org/2000/svg"
   xmlns:svg="http://www.w3.org/2000/svg">
  <sodipodi:namedview
     id="namedview7"
     pagecolor="#ffffff"
     bordercolor="#666666"
     borderopacity="1.0"
     inkscape:pageshadow="2"
     inkscape:pageopacity="0.0"
     inkscape:pagecheckerboard="0"
     inkscape:document-units="mm"
     showgrid="false"
     inkscape:zoom="1.6302377"
     inkscape:cx="158.56583"
     inkscape:cy="159.48594"
     inkscape:window-width="1366"
     inkscape:window-height="719"
     inkscape:window-x="0"
     inkscape:window-y="25"
     inkscape:window-maximized="1"
     inkscape:current-layer="layer1"
     fit-margin-top="0"
     fit-margin-left="0"
     fit-margin-right="0"
     fit-margin-bottom="0" />
  <defs
     id="defs2" />
  <g
     inkscape:label="Layer 1"
     inkscape:groupmode="layer"
     id="layer1"
     transform="translate(-56.098982,-62.852336)">
    <g
       id="g5506">
      <g
         id="g5483">
        <path
           id="path2791"
           style="fill:#f2ffd9;fill-opacity:0.309056;fill-rule:evenodd;stroke-width:0.275074"
           d="m 79.032337,62.852342 c -0.934445,-8.49e-4 -1.924797,0.08556 -2.979077,0.274535 -21.238625,3.806999 -21.05731,26.460761 -19.152588,32.676363 7.419383,24.21138 26.375864,32.34473 40.798576,51.44374 22.646452,-26.01427 42.153532,-27.1687 42.153532,-52.491389 0,-14.652396 -6.45898,-24.659842 -17.92282,-29.452832 -11.1379,-4.656725 -12.16224,9.752244 -21.30483,9.752244 -7.373864,0 -10.56638,-12.192632 -21.592793,-12.202661 z m 5.146897,11.744385 c 8.118076,0.0071 10.468432,8.630458 15.897356,8.630458 6.73113,-4e-6 7.48554,-10.190617 15.68569,-6.897276 8.44012,3.389712 13.19551,10.467388 13.19551,20.829898 0,17.908783 -14.36238,18.724793 -31.035583,37.122683 C 87.303644,120.77524 73.347282,115.02352 67.884842,97.900682 66.48251,93.504864 66.349454,77.483607 81.986162,74.791212 c 0.776202,-0.13365 1.5051,-0.195088 2.193072,-0.194485 z" />
        <g
           id="g5328">
          <path
             id="path86"
             style="fill:#0092ff;fill-rule:evenodd;stroke-width:0.999999"
             d="m 301.43555,243.63477 c -3.39706,-0.003 -6.99737,0.31103 -10.83008,0.99804 -77.21049,13.83989 -76.55134,96.19494 -69.62695,118.79102 26.97228,88.01759 95.88631,117.58543 148.31836,187.01758 82.32848,-94.57176 153.24414,-98.76857 153.24414,-190.82618 0,-53.26704 -23.48088,-89.64792 -65.15625,-107.07226 -40.49054,-16.92897 -44.21439,35.45312 -77.45118,35.45312 -26.80682,0 -38.41283,-44.32486 -78.49804,-44.36132 z m 18.71093,42.69531 c 29.5123,0.0258 38.05674,31.375 57.79297,31.375 24.4702,-1e-5 27.21276,-37.04677 57.02344,-25.07422 30.68304,12.32289 47.9707,38.05294 47.9707,75.72461 0,65.10524 -52.21271,68.07176 -112.82617,134.95508 -38.60252,-49.10397 -89.33921,-70.01366 -109.19726,-132.26172 -5.09801,-15.98047 -5.58172,-74.22384 51.26367,-84.01172 2.82179,-0.48587 5.47161,-0.70922 7.97265,-0.70703 z"
             transform="scale(0.26458333)" />
          <path
             id="path2660"
             style="fill:#001fff;fill-opacity:1;fill-rule:evenodd;stroke-width:0.721584"
             d="m 320.14648,286.33008 c -2.50104,-0.002 -5.15086,0.22116 -7.97265,0.70703 -56.84539,9.78788 -56.36168,68.03125 -51.26367,84.01172 19.85805,62.24806 70.59474,83.15775 109.19726,132.26172 60.61346,-66.88332 112.82617,-69.84984 112.82617,-134.95508 0,-37.67167 -17.28766,-63.40172 -47.9707,-75.72461 -29.81068,-11.97255 -32.55324,25.07421 -57.02344,25.07422 -19.73623,0 -28.28067,-31.34921 -57.79297,-31.375 z m 9.97852,21.34765 c 23.70495,0.0207 30.56733,25.20118 46.41992,25.20118 19.65504,-1e-5 21.85615,-29.7553 45.80078,-20.13868 24.64532,9.89803 38.53125,30.56353 38.53125,60.82227 0,52.29399 -41.93695,54.67819 -90.62304,108.40039 -31.00642,-39.44141 -71.76051,-56.23727 -87.71094,-106.23633 -4.09484,-12.83587 -4.48372,-59.61861 41.17578,-67.48047 2.26653,-0.39026 4.39736,-0.57011 6.40625,-0.56836 z"
             transform="scale(0.26458333)" />
        </g>
      </g>
      <g
         id="g5314">
        <path
           sodipodi:type="star"
           style="fill:#99f8d9;fill-opacity:1"
           id="path5247"
           inkscape:flatsided="false"
           sodipodi:sides="5"
           sodipodi:cx="126.75702"
           sodipodi:cy="114.23498"
           sodipodi:r1="70.023041"
           sodipodi:r2="35.01152"
           sodipodi:arg1="1.0471976"
           sodipodi:arg2="1.6755161"
           inkscape:rounded="0"
           inkscape:randomized="0"
           d="M 161.76854,174.87671 123.09732,149.0547 79.902457,166.27224 92.510584,121.51428 62.78779,85.754038 l 46.46347,-1.839927 24.82516,-39.31858 16.10788,43.620817 45.06559,11.460024 -36.50826,28.799078 z"
           transform="matrix(0.26458333,0,0,0.26458333,57.067748,63.657544)"
           inkscape:transform-center-x="-0.59843942"
           inkscape:transform-center-y="-1.1903229" />
        <path
           sodipodi:type="star"
           style="fill:#f200d9;fill-opacity:1"
           id="path4989"
           inkscape:flatsided="false"
           sodipodi:sides="5"
           sodipodi:cx="126.75702"
           sodipodi:cy="114.23498"
           sodipodi:r1="70.023041"
           sodipodi:r2="35.01152"
           sodipodi:arg1="1.0471976"
           sodipodi:arg2="1.6755161"
           inkscape:rounded="0"
           inkscape:randomized="0"
           d="M 161.76854,174.87671 123.09732,149.0547 79.902457,166.27224 92.510584,121.51428 62.78779,85.754038 l 46.46347,-1.839927 24.82516,-39.31858 16.10788,43.620817 45.06559,11.460024 -36.50826,28.799078 z"
           transform="matrix(0.26458333,0,0,0.26458333,56.098982,62.852336)"
           inkscape:transform-center-x="-0.59843942"
           inkscape:transform-center-y="-1.1903229" />
      </g>
    </g>
  </g>
</svg>
